<?xml version="1.0" encoding="UTF-8" standalone="no"?>
<!DOCTYPE svg PUBLIC "-//W3C//DTD SVG 1.1//EN" "http://www.w3.org/Graphics/SVG/1.1/DTD/svg11.dtd">
<svg width="100%" height="100%" viewBox="0 0 250 250" version="1.1" xmlns="http://www.w3.org/2000/svg" xmlns:xlink="http://www.w3.org/1999/xlink" xml:space="preserve" xmlns:serif="http://www.serif.com/" style="fill-rule:evenodd;clip-rule:evenodd;stroke-linejoin:round;stroke-miterlimit:2;">
    <g transform="matrix(1,0,0,1,-62,-41)">
        <clipPath id="_clip1">
            <rect x="132.883" y="98.902" width="109.23" height="109.5"/>
        </clipPath>
        <g clip-path="url(#_clip1)">
            <path d="M242.113,179.07C242.113,180.031 242.062,180.988 241.968,181.945C241.874,182.902 241.734,183.851 241.546,184.793L240.847,187.586L239.878,190.293C239.512,191.181 239.101,192.051 238.648,192.898L237.168,195.367C236.637,196.164 236.063,196.933 235.453,197.676C234.843,198.419 234.199,199.133 233.519,199.809L231.386,201.743L229.077,203.458L226.604,204.938C225.76,205.391 224.893,205.801 224.002,206.168L221.295,207.137C220.373,207.418 219.443,207.649 218.502,207.836L215.654,208.262L212.779,208.403L161.939,208.403C160.979,208.403 160.019,208.356 159.064,208.262L156.216,207.836L153.427,207.137C152.505,206.86 151.603,206.535 150.716,206.168L148.114,204.938L145.645,203.458C144.846,202.926 144.074,202.354 143.333,201.743L141.2,199.809C140.52,199.133 139.876,198.422 139.266,197.676L137.551,195.367L136.071,192.898L134.841,190.296L133.872,187.585C133.591,186.663 133.36,185.733 133.173,184.792L132.751,181.944L132.61,179.069L132.61,128.229L132.751,125.354L133.173,122.506L133.872,119.717C134.149,118.795 134.474,117.893 134.841,117.006L136.071,114.404L137.551,111.935L139.266,109.623L141.2,107.49L143.333,105.556L145.646,103.841C146.444,103.307 147.268,102.813 148.115,102.361C148.961,101.908 149.83,101.497 150.717,101.131L153.428,100.162L156.217,99.463C157.158,99.276 158.108,99.135 159.065,99.041L161.94,98.9L212.78,98.9L215.655,99.041L218.503,99.463L221.296,100.162C222.214,100.439 223.116,100.764 224.003,101.131C224.89,101.498 225.761,101.908 226.605,102.361L229.078,103.841L231.387,105.556L233.52,107.49L235.454,109.623C236.065,110.364 236.637,111.136 237.169,111.936C237.703,112.734 238.197,113.558 238.649,114.405L239.879,117.007C240.246,117.894 240.57,118.796 240.848,119.718C241.126,120.64 241.36,121.566 241.547,122.507L241.969,125.355L242.114,128.23L242.113,179.07ZM221.894,146.886L221.41,144.781L220.797,142.711L220.055,140.68L219.196,138.7L218.216,136.778L217.114,134.919L215.907,133.13L214.591,131.415L213.169,129.79L211.653,128.251L210.044,126.81L208.349,125.47L206.576,124.236L204.732,123.115L202.822,122.107L200.853,121.22L198.833,120.454L196.771,119.813L194.673,119.301L192.548,118.914L190.403,118.664L188.247,118.543C187.524,118.527 186.806,118.531 186.087,118.555L183.931,118.703L181.79,118.976L179.669,119.386L177.575,119.921L175.52,120.585L173.512,121.374L171.551,122.284L169.653,123.315L167.821,124.46L166.063,125.714L164.383,127.073L162.793,128.534L161.293,130.089L159.895,131.73L158.594,133.457L157.407,135.262L156.329,137.133L155.372,139.071L154.532,141.059L153.817,143.098L153.227,145.176L152.766,147.285L152.438,149.418L152.239,151.57L152.173,153.73L152.239,155.886L152.438,158.038L152.766,160.171L153.227,162.28L153.817,164.358L154.532,166.397L155.372,168.389L156.329,170.323L157.407,172.194L158.595,173.999L159.896,175.726L161.294,177.371L162.794,178.926L164.384,180.383L166.064,181.746L167.82,183L169.652,184.141L171.55,185.172L173.511,186.082L175.519,186.871L177.574,187.535L179.668,188.074L181.789,188.48L183.93,188.757L186.086,188.902L188.246,188.914L190.402,188.793L192.547,188.543L194.672,188.16L196.77,187.648L198.833,187.007L200.853,186.241L202.822,185.35L204.732,184.342L206.576,183.221L208.349,181.987L210.044,180.647L211.653,179.206L213.169,177.671L214.591,176.042L215.907,174.331L217.114,172.542L218.216,170.683L219.196,168.757L220.055,166.777L220.797,164.75L221.41,162.676L221.894,160.574C221.925,160.387 221.937,160.203 221.929,160.012C221.922,159.826 221.893,159.641 221.843,159.461C221.798,159.279 221.729,159.103 221.64,158.938C221.555,158.771 221.45,158.615 221.328,158.473C221.207,158.328 221.07,158.2 220.922,158.086C220.774,157.971 220.613,157.874 220.442,157.797C220.27,157.719 220.094,157.66 219.911,157.617C219.727,157.577 219.54,157.559 219.352,157.562L199.954,157.562C199.944,157.562 199.934,157.561 199.924,157.561C199.469,157.561 199.094,157.936 199.094,158.391C199.094,158.401 199.095,158.411 199.095,158.421L199.095,163.015C199.095,163.331 199.036,163.632 198.915,163.921C198.794,164.21 198.622,164.468 198.403,164.691C198.184,164.914 197.923,165.082 197.633,165.203C197.343,165.324 197.043,165.383 196.727,165.383L177.997,165.383C177.681,165.383 177.38,165.324 177.091,165.203C176.802,165.082 176.544,164.91 176.325,164.691C176.104,164.471 175.929,164.209 175.809,163.921C175.688,163.632 175.629,163.331 175.629,163.015L175.629,144.285C175.628,143.974 175.689,143.666 175.809,143.379C175.93,143.09 176.102,142.832 176.325,142.613C176.548,142.394 176.802,142.218 177.091,142.097C177.378,141.979 177.686,141.918 177.997,141.917L196.727,141.917C197.038,141.918 197.346,141.979 197.633,142.097C197.921,142.217 198.183,142.392 198.403,142.613C198.622,142.832 198.794,143.09 198.915,143.379C199.035,143.666 199.096,143.974 199.095,144.285L199.095,148.058C199.095,148.281 199.138,148.496 199.224,148.703C199.31,148.91 199.431,149.09 199.587,149.246C199.743,149.402 199.927,149.527 200.134,149.613C200.337,149.699 200.555,149.743 200.775,149.742L219.568,149.742C219.744,149.738 219.92,149.719 220.088,149.68C220.256,149.641 220.428,149.582 220.584,149.508C220.74,149.434 220.893,149.34 221.029,149.231C221.165,149.122 221.295,149.001 221.404,148.864C221.516,148.728 221.611,148.58 221.689,148.423C221.767,148.263 221.83,148.099 221.873,147.931C221.913,147.76 221.935,147.586 221.939,147.411C221.944,147.236 221.93,147.06 221.896,146.888L221.894,146.886Z" style="fill:rgb(4,9,47);fill-rule:nonzero;"/>
        </g>
    </g>
    <g transform="matrix(1,0,0,1,-62,-41)">
        <g id="A" transform="matrix(1,0,0,1,127.108,257.559)">
            <path d="M27.063,-5.359C25.895,-3.504 24.297,-2.078 22.266,-1.078C20.243,-0.078 17.989,0.422 15.5,0.422C12.457,0.422 9.852,-0.109 7.688,-1.172C5.532,-2.242 3.879,-3.781 2.735,-5.781C1.598,-7.781 1.032,-10.16 1.032,-12.922C1.032,-15.836 1.657,-18.367 2.907,-20.516C4.157,-22.672 5.907,-24.348 8.157,-25.547C10.415,-26.754 13.04,-27.359 16.032,-27.359C18.665,-27.359 20.884,-26.894 22.688,-25.968C24.489,-25.05 25.958,-23.628 27.094,-21.702L21.36,-17.624C20.88,-18.561 20.13,-19.3 19.11,-19.843C18.098,-20.394 16.985,-20.671 15.766,-20.671C13.536,-20.691 11.805,-19.999 10.579,-18.593C9.353,-17.187 8.735,-15.359 8.735,-13.109C8.735,-10.953 9.298,-9.269 10.423,-8.062C11.556,-6.863 13.267,-6.265 15.548,-6.265C18.181,-6.265 20.157,-7.406 21.47,-9.687L27.063,-5.359Z" style="fill:rgb(4,9,47);fill-rule:nonzero;"/>
        </g>
        <g id="B" transform="matrix(1,0,0,1,161.189,257.559)">
            <rect x="2.281" y="-26.984" width="7.594" height="26.984" style="fill:rgb(4,9,47);fill-rule:nonzero;"/>
        </g>
        <g id="C" transform="matrix(1,0,0,1,181.098,257.559)">
            <path d="M2.359,0L3.156,-26.984L9.344,-26.984L18.391,-9.39L27.282,-26.984L33.485,-26.984L34.047,0L26.719,0L26.485,-11.281L20.703,0L15.391,0L9.656,-11.094L9.313,0L2.359,0Z" style="fill:rgb(4,9,47);fill-rule:nonzero;"/>
        </g>
        <g id="D" transform="matrix(1,0,0,1,225.285,257.559)">
            <path d="M21.969,-20.484L9.766,-20.484L9.766,-16.796L20.969,-16.796L20.969,-10.296L9.766,-10.296L9.766,-6.5L22.266,-6.5L21.813,0L2.281,0L2.281,-26.984L21.969,-26.984L21.969,-20.484Z" style="fill:rgb(4,9,47);fill-rule:nonzero;"/>
        </g>
    </g>
</svg>
