<svg xmlns="http://www.w3.org/2000/svg" viewBox="0 0 500 500" xmlns:v="https://vecta.io/nano"><path d="M422.968 107.94l-.118.305c-2.594 7.871-4.317 16.003-5.14 24.25l-.278 2.45-.147 1.475-9.432 4.102-2.25.975-15.57 6.77s-.855 1.017-2.38 3.185c-8.538 12.796-15.712 26.451-21.402 40.742 0 0 4.66 38.54-1.79 62.918l-3.723 24.402L385 286.65l5.087 1.5c.855-13.79 12.52-39.07 24.105-61.335-9.896-2.216-18.421-8.458-23.522-17.223s-6.316-19.26-3.353-28.959a35.41 35.41 0 0 1 8.567-13.77 33.48 33.48 0 0 1 7.972-5.888 35.71 35.71 0 0 1 20.64-3.833 37.27 37.27 0 0 1 13.235 4.022c-.336-3.953-.463-7.921-.382-11.888a22.89 22.89 0 0 1-2.858-3.63c-4.918-7.371-4.67-17.038.62-24.148a21.98 21.98 0 0 1 1.72-2.068 21.14 21.14 0 0 1 16.775-6.445c9.117-14.42 19.975-29.815 26.41-38.75-.002-.015-53.04 23.905-57.05 33.703z" fill="#c17e48"/><path d="M230.788 133.043c-1.743-.206-3.371-.977-4.635-2.195-2.583-3.405-1.047-7.825.545-10.765a113.6 113.6 0 0 0-1.48-3.908c-1.902-.66-3.515-1.852-1.715-3.925-.682-1.472-1.482-2.887-2.392-4.23-4.685-6.658.637-24.805.88-40.27.113-7.11-.845-13.655-4.35-18.25l-15.022-19.815-10.985-14.56h-.058l-.11.848c-1.45 11.453-2.097 23.03-2.873 34.54l-3.25 54.11q-1.597 28.798-3.03 57.6-.825 16.462-1.607 32.922a35.32 35.32 0 0 1 16.367 12.02c.328-4.178 2.07-12.353 2.315-13.635a112.36 112.36 0 0 1 3.635-14.068 87.08 87.08 0 0 1 10.087-21c4.945-7.726 11.591-14.22 19.43-18.985l-1.752-6.435zm249.23-58.822c-6.435 8.947-17.293 24.343-26.41 38.762-8.41 13.303-15.342 25.773-15.952 31.578a66.95 66.95 0 0 0-.305 4.712c-.081 3.966.047 7.934.383 11.888.75 9.715 2.015 18.362-.078 22.815-.668 1.42-3.06 5.62-6.437 11.618l-1.22 2.168-6.5 11.675-.25.44q-.537.975-1.082 1.977l-.277.5-7.708 14.45c-11.585 22.265-23.25 47.545-24.105 61.335l32.853 9.658 10.423 3.063 17.97 5.282 1.178-8.527 2.735-19.83 3.805-27.585 4.5-32.65 4.832-35.02 4.785-34.693q2.188-15.835 4.37-31.675l3.582-25.96 2.42-17.55.563-4.08-4.072 5.65z" fill="#e59e70"/><path d="M436.833 119.428a21.98 21.98 0 0 0-1.72 2.067c-5.29 7.109-5.538 16.776-.62 24.148a22.89 22.89 0 0 0 2.858 3.63c.045-1.58.14-3.153.305-4.712.61-5.805 7.543-18.275 15.952-31.578a21.14 21.14 0 0 0-16.775 6.445zm-208.257-81.1a22.2 22.2 0 0 0-25.957-8.645l15.022 19.815c3.5 4.597 4.462 11.142 4.35 18.25a22.46 22.46 0 0 0 9.827-17.333 20.5 20.5 0 0 0-3.242-12.087z" fill="#ffd35c"/><path d="M422.362 191.403a22.59 22.59 0 0 0 8.29-4.528c2.469-2.027 3.256-5.466 1.915-8.365-1.431-1.949-3.592-3.233-5.988-3.558a1.36 1.36 0 0 0 .072-.305l.4-6.535.058-.94a1.23 1.23 0 0 0-1.22-1.22 1.25 1.25 0 0 0-1.218 1.22l-.402 6.535-.048.807-.135-.02-3.338-.368.39-6.377.058-.94c-.003-.672-.546-1.216-1.217-1.22a1.25 1.25 0 0 0-1.22 1.22l-.4 6.535v.135l-5.88-.36-.94-.058c-.672.003-1.216.548-1.218 1.22a1.25 1.25 0 0 0 1.217 1.218l3.345.205-1.827 29.795-.2 3.25-2.552-.157-.94-.057a1.23 1.23 0 0 0-1.22 1.22 1.25 1.25 0 0 0 1.22 1.22l6.535.4h.138l-.363 5.88-.058.942c.004.672.548 1.215 1.22 1.218a1.25 1.25 0 0 0 1.22-1.218l.4-6.535v-.065l2.72.208.75.032-.033.517.277-.5q.543-1 1.082-1.977l.25-.44c-.488 0-.962-.015-1.405-.028-2.283-.057-4.558-.284-6.808-.68q.5-7.968.977-15.933c.138.065.288.103.44.113q.215.015.428.038.212.022.5.052l.44.053c1.323.185 2.635.447 3.928.785 2.941.641 5.684 1.983 7.995 3.913l1.22-2.168c-2.006-1.605-4.296-2.818-6.75-3.575l-2.107-.605zm-.592-2.368c-1.749.623-3.543 1.115-5.365 1.472l.677-11.045.185-3.027 4.525.218a14.43 14.43 0 0 1 8.128 2.437c1.75 1.595.75 4.343-.808 5.882a19.23 19.23 0 0 1-7.342 4.063z"/><path d="M50.86 339.883l-22.61-8.5-7.547-2.837 4.047 13.53 55.393 21.28-2.672-13.47zm397.333-25.725l-9.968 11.112-30.475 33.955-35.25 39.297-29.145 32.5-12.03 13.407-.89 1.36q-3.25 4.973-6.515 9.945L448.215 320.14l2.87-9.11-2.892 3.127zM322.562 453.36l5.938-9.06c-3.75-1.285-7.415-2.815-11.108-4.203l-25.437-9.565-35.515-13.353-42.032-15.805-42.872-16.125-5.657 4.042-6.373 4.55 162.13 62.29c-.314-.367-.333-.902-.045-1.29z" fill="#b2eacd"/><path d="M76.908 347.08l-18.232-6.855-25.425-9.562-10.208-3.89 22.015-13.965 22.265-14.12-.5-2.565-11.455 7.265L21.292 325l-1.372.868a1.02 1.02 0 0 0-.617.5 1.29 1.29 0 0 0 .773 1.95l.627.235 7.547 2.837 22.61 8.5 26.605 10-.278-1.4zM485.935 65.355q-10.93-1.973-21.863-3.935-14.87-2.675-29.738-5.338l-35.13-6.295-38.52-6.898-39.435-7.06-38.055-6.807-34.355-6.14-28.208-5.042-20-3.575-9.347-1.67-.398-.072c-.649-.17-1.314.208-1.5.853-1.603 10.313-2.097 20.855-2.827 31.25l-3.25 52.488q-1.638 29.138-3.1 58.298-.987 19.485-1.915 38.973l.48.135c.648.185 1.287.392 1.923.615q.795-16.457 1.608-32.922 1.447-28.803 3.03-57.6l3.25-54.11c.775-11.5 1.423-23.087 2.873-34.54l.11-.848h.057l5 .893 17.613 3.147 26.385 4.727 33.082 5.915 37.36 6.683 39.322 7.038 38.96 6.975q18.067 3.233 36.132 6.472 15.655 2.805 31.31 5.618l24 4.315 3.462.625-.147 1.057-.562 4.08-2.42 17.55-3.582 25.96-4.37 31.675-4.785 34.692-4.832 35.02-4.5 32.65-3.805 27.585-2.735 19.83-1.178 8.528-17.97-5.283-10.423-3.062-32.852-9.657-5.087-1.5-24.273-7.135-37.48-11.01a40.24 40.24 0 0 1-1.477 2.108l48.592 14.282 53.015 15.585 26.767 7.868-10.802 12.042L410.2 352.87l-35.25 39.297-30.475 33.955-9.967 11.11-3.14 3.5c-.375.42-1.045.955-1.435 1.485l-7.552-2.84-22.61-8.5-33.265-12.5-40.75-15.325-44.66-16.803-7.18-2.7-1.192.853-1.187.847 42.873 16.12 42.033 15.805 35.515 13.353 25.438 9.565c3.692 1.387 7.37 2.917 11.108 4.202l-5.937 9.06-.973 1.488c-.288.388-.269.923.045 1.29a1.38 1.38 0 0 0 1.25.483 1.19 1.19 0 0 0 .31-.102c.204-.098.377-.25.5-.44l.232-.355q3.25-4.973 6.515-9.945l.89-1.36 12.03-13.407 29.145-32.5 35.25-39.298 30.465-33.955 9.967-11.113 2.9-3.14c.653-.715 1.293-1.437 1.882-2.19a.96.96 0 0 0 .538-.787l.89-6.45 2.422-17.553 3.58-25.96 4.37-31.675 4.788-34.692 4.83-35.02 4.5-32.65 3.805-27.585 2.735-19.827q.65-4.683 1.292-9.363l.058-.41a1.25 1.25 0 0 0-.845-1.483z" fill="#4fb3aa"/><path d="M322.89 456.62l.158.06.152-.163a1.19 1.19 0 0 1-.31.103z" fill="#ffceb6"/><path d="M335.598 274.155l-7.053 5.66-19.19 15.4-2.565 2.058a1.25 1.25 0 0 0-.488-.265c-16.048-4.626-31.777-10.295-47.085-16.972l-2.218-1 17.067-12.185 10.533-7.522.455-.325c1.265-.903.05-3.02-1.23-2.105l-7.22 5.155-19.645 14.025-29.058 20.75-35.455 25.308-38.838 27.73-39.205 28-36.56 26.095-30.9 22.063L24.72 441.89l-10.535 7.52-.453.325c-1.267.902-.05 3.02 1.23 2.105l7.218-5.153 10.872-7.762c3.39 2.083 6.875 4.025 10.363 5.935q14.5 7.948 29.595 14.73 10.218 4.613 20.663 8.702l-10.775 8.647-10.207 8.19-.442.357c-1.225.98.5 2.698 1.722 1.723l7.052-5.658 15.48-12.422a1 1 0 0 0 .465-.375l3.25-2.602 28.38-22.775 34.623-27.782 37.71-30.25 38.265-30.707L274.87 326l30.142-24.187 21.658-17.38 10.207-8.192.445-.355c1.223-.988-.513-2.703-1.725-1.73zM104.555 459.56l-8.705 6.985q-18.75-7.275-36.792-16.268c-7.407-3.663-14.691-7.569-21.84-11.713q-1-.587-2-1.182l6.612-4.723 29.058-20.75 15.732-11.235c3.048 1.925 6.183 3.717 9.32 5.485q13 7.315 26.58 13.582 10.162 4.718 20.578 8.847h.035l-8.43 6.765zM263.888 331.7a1.21 1.21 0 0 0-.663-.555c-5.524-1.92-10.867-4.327-15.965-7.192a1.22 1.22 0 0 0-1.233 2.105c5.085 2.858 10.41 5.269 15.913 7.205l-15.588 12.5-33.812 27.142a1.21 1.21 0 0 0-.523-.308c-5.186-1.464-10.252-3.325-15.152-5.565-1.41-.67-2.65 1.432-1.23 2.105a105.83 105.83 0 0 0 14.732 5.5l-1.725 1.385-38.265 30.727-25.825 20.722c.015-.537-.311-1.025-.813-1.217q-17.187-6.82-33.667-15.268c-6.645-3.377-13.175-6.975-19.58-10.788l-1.717-1.05 17.563-12.54 38.837-27.74 39.207-28 36.56-26.095 30.9-22.06 2.938-2.1a1.23 1.23 0 0 0 .317.22 316.82 316.82 0 0 0 32.365 12.75q8.5 2.918 17.125 5.463L280.975 318z" fill="#1d1d1b"/><path d="M261.25 271.823l-.33-.45a38.88 38.88 0 0 1-3.197-5.25l-.095.585c-.002.107-.02.213-.052.315l-.095.575-4.303 26.062-3.433 20.795-.065.398-.065.4a16.8 16.8 0 0 0 1.915.135h.322c.785-.03 2.42-.093 7.45-29.232l2.285-13.863-.027-.035zm66.18-23.627c-.968-5.714-3.33-11.1-6.877-15.683-.791-.998-1.638-1.951-2.535-2.855-.338-.343-.665-.697-1.015-1.028a1.25 1.25 0 0 0-2.04.538c-1.201 3.012-2.592 5.944-4.165 8.78-1.668 3.212-3.794 6.165-6.312 8.765a8.08 8.08 0 0 1-7.388 2.925c-1.537-.508-2.897-1.443-3.923-2.695-1.788-2.024-3.154-4.384-4.02-6.942-.268-.769-.492-1.553-.67-2.347-.073-.332-.139-.665-.197-1v-.018c-.073-.671-.135-1.342-.187-2.015-.08-.958-.125-1.919-.135-2.88 0-.365 0-.735.03-1.097l-1.25.75q-.627.375-1.222.695c-4.933 2.712-10.102 4.971-15.442 6.75a78.62 78.62 0 0 1-9.715 2.72c-.702 1.291-1.593 2.471-2.643 3.5-.442.447-.902.882-1.372 1.313l-.365.335-.17 1 .5-.272 2.72-1.5a1.25 1.25 0 0 1 1.792 1.378l-.422 2.55-.027.167-.4 2.422q-.322 1.972-.65 3.942l-.065.4-.067.403-.725 4.392-.06.37a1.25 1.25 0 0 1 .385.552l.085.225.108.272.033.085.02.042c.34.778.703 1.545 1.095 2.298.418.8.873 1.582 1.343 2.357.105.173.215.343.322.5s.215.353.33.525a37.09 37.09 0 0 0 9 9.66 32.4 32.4 0 0 0 2.715 1.792c6.965 3.963 15.015 5.593 22.972 4.65a1 1 0 0 1 1.148.873c2.628-.341 5.199-1.028 7.647-2.042a40 40 0 0 0 14.913-11.55q.637-.78 1.25-1.595c.513-.685 1-1.387 1.478-2.108a27.39 27.39 0 0 0 4.675-12.25 21.52 21.52 0 0 0 .058-.807c.084-2.427-.102-4.856-.555-7.242z" fill="#59679c"/><path d="M255.515 145.05a16.36 16.36 0 0 0 2.287 5.06c1.363 2.443 3.988 3.908 6.783 3.785 2.894-.658 5.443-2.363 7.155-4.787a48.52 48.52 0 0 0 7.452-12.098c.066-.154.164-.292.287-.405q-2.175-.832-4.435-1.475l-8.917-1.605a6.34 6.34 0 0 1-.968 3.14 19.63 19.63 0 0 1-10.873 7.513 1.25 1.25 0 0 1 1.228.872zm-19.07-6.05c.083 1.277.296 2.542.637 3.775 1.055 4.142 3.938 9.417 9.05 8.54 3.271-.967 5.912-3.391 7.155-6.568.086-.182.227-.332.403-.43a9.04 9.04 0 0 1-5.61-.06c-2.822-1.333-3.292-6.548-3.317-9.613a55.49 55.49 0 0 0-4.148 1.165 42.41 42.41 0 0 0-5.093 2.067 1.19 1.19 0 0 1 .922 1.123zm72.305 31.302c-1.236-4.984-3.212-9.754-5.863-14.153-.29-.402-.261-.951.07-1.32a58 58 0 0 0-16.465-14.9 47.09 47.09 0 0 0-5.145-2.582 1.25 1.25 0 0 1-.055.895 56.26 56.26 0 0 1-2.98 5.697 39.29 39.29 0 0 1-6.57 8.695 9.85 9.85 0 0 1-16.978-2.775l-1.367 21.662c-.068 1.565-2.5 1.567-2.437 0l.308-5.562q.472-7.778 1.025-15.55c-1.793 2.044-4.335 3.278-7.05 3.425a9.48 9.48 0 0 1-7.428-3.75A20.04 20.04 0 0 1 234 139a1.26 1.26 0 0 1 .042-.387q-.765.4-1.515.832a60.19 60.19 0 0 0-19.43 18.985 87.08 87.08 0 0 0-10.088 21 112.25 112.25 0 0 0-3.635 14.067c-.25 1.283-2 9.458-2.315 13.635l.525.705q.975 1.365 1.81 2.82l2 1.028a36.09 36.09 0 0 1 3.79-2.18c7.175-3.511 15.354-4.397 23.115-2.505 4.814 1.138 9.355 3.221 13.357 6.127.695-.744 1.667-1.169 2.685-1.175a14.03 14.03 0 0 1 8.963 3.37l-.682-1.843a1.23 1.23 0 0 1 .85-1.5c1.663-.449 3.297-1.001 4.892-1.653 3.266-1.298 6.413-2.878 9.405-4.722 3.855-2.35 7.344-5.255 10.355-8.62 3.405-3.826 5.905-8.37 7.315-13.295a39.69 39.69 0 0 0 .263-18.88c-.322-1.535 2.03-2.185 2.35-.65a41.61 41.61 0 0 1-.78 21.865 42.36 42.36 0 0 1-19.208 22.25 55.98 55.98 0 0 1-12.667 5.695l2.127 5.75c1.471 2.068 2.575 4.373 3.265 6.815a27.8 27.8 0 0 1 .972 5.5 27.91 27.91 0 0 1 .06 1.213c.012.405 0 .815 0 1.223a25.57 25.57 0 0 1-.29 3.558c-.04.25-.097.5-.15.75 3.322-.875 6.625-1.75 9.883-2.915a91.99 91.99 0 0 0 10-4.267c1.09-.548 2.173-1.108 3.235-1.703.478-.267.942-.55 1.415-.827l.94-.553.313-.19q2.403-1.477 4.685-3.147a43.75 43.75 0 0 0 15.935-20.548c3.766-11.084 4.102-23.047.962-34.325zm-81.052-16.405a110.26 110.26 0 0 0-.778 3 218.58 218.58 0 0 0-6.325 43.202c-.065 1.565-2.5 1.568-2.44 0 .218-5.218.657-10.42 1.282-15.605a211.85 211.85 0 0 1 5.907-31.25 1.221 1.221 0 1 1 2.353.652zm21.528 16.673a1.3 1.3 0 0 1-.357.862 1.22 1.22 0 0 1-2.08-.862l.1-2.25a1.32 1.32 0 0 1 .358-.86 1.22 1.22 0 0 1 2.082.86l-.102 2.25zm0-9.75c-.008.322-.136.629-.357.863a1.23 1.23 0 0 1-.863.357 1.22 1.22 0 0 1-1.217-1.22l.1-2.25a1.33 1.33 0 0 1 .358-.862 1.22 1.22 0 0 1 2.082.862l-.102 2.248z" fill="#1652f0"/><path d="M382.923 121.728a28.46 28.46 0 0 0-2.343 12.832 27.83 27.83 0 0 0 7.077 16.905l2.38-3.185 15.57-6.77q-3-9.238-6.02-18.473l-2.445.795a1.22 1.22 0 0 1-.647-2.35l.72-.235 4.168-1.357-1.627-5a1.22 1.22 0 0 1 1.484-1.508 1.22 1.22 0 0 1 .868.861l.235.72 1.482 4.552a34.24 34.24 0 0 1 2.203-.608h.045l-.155-.472-1.632-5a1.22 1.22 0 0 1 1.484-1.508 1.22 1.22 0 0 1 .868.861l.235.717 1.61 4.95a7.44 7.44 0 0 1 5.282.843c1.992 1.668 2.599 4.475 1.475 6.818a16.44 16.44 0 0 1-4.405 5.84l1.197-.09c1.916-.118 3.839.105 5.678.657.823-8.247 2.546-16.379 5.14-24.25-7.045-3.706-15.301-4.365-22.845-1.823a29.1 29.1 0 0 0-17.082 15.278zm23.237 13.597l1.698 5.207 9.432-4.102.148-1.475a17.69 17.69 0 0 0-11.278.37zm6.798-10.045c.635-1.515.558-3.75-1.25-4.302-2.239-.373-4.537-.126-6.645.715q-1.442.422-2.85.955l-.162.065.72 2.208 2.627 8.062a28.62 28.62 0 0 0 3.355-2.548 15.02 15.02 0 0 0 4.205-5.155zm24.775 35.88a37.26 37.26 0 0 0-13.238-4.022 35.7 35.7 0 0 0-20.637 3.833 33.48 33.48 0 0 0-7.972 5.887 35.41 35.41 0 0 0-8.567 13.77c-2.963 9.699-1.747 20.194 3.353 28.959a36.42 36.42 0 0 0 23.522 17.223l7.708-14.45.032-.517-.75-.032a58.54 58.54 0 0 1-2.72-.207v.065l-.4 6.535a1.25 1.25 0 0 1-1.22 1.217c-.672-.003-1.216-.546-1.22-1.217l.058-.942.363-5.88h-.137l-6.535-.4a1.25 1.25 0 0 1-1.22-1.22 1.23 1.23 0 0 1 1.22-1.22l.94.057 2.552.158.2-3.25 1.827-29.795-3.345-.205a1.25 1.25 0 0 1-1.218-1.217c.001-.672.545-1.217 1.218-1.22l.94.058 5.88.36v-.135q.198-3.27.4-6.535a1.25 1.25 0 0 1 1.22-1.22c.672.004 1.215.548 1.217 1.22l-.057.94-.39 6.378c1.118.085 2.235.203 3.338.368l.135.02.048-.807.403-6.535a1.25 1.25 0 0 1 1.217-1.22 1.23 1.23 0 0 1 1.22 1.22l-.057.94q-.198 3.27-.4 6.535a1.36 1.36 0 0 1-.072.305c2.396.325 4.557 1.609 5.988 3.557 1.341 2.899.554 6.338-1.915 8.365a22.59 22.59 0 0 1-8.29 4.528 32.97 32.97 0 0 1 2.097.615 20.46 20.46 0 0 1 6.75 3.575l6.437-11.618c2.098-4.457.823-13.105.08-22.82zm-19.658 31.89l-.44-.053q-.25-.03-.5-.053-.25-.023-.428-.037c-.152-.009-.302-.047-.44-.113l-.978 15.933c2.249.396 4.525.623 6.808.68l1.405.027 6.5-11.675a18.71 18.71 0 0 0-8-3.928c-1.293-.336-2.604-.597-3.927-.782zm11.037-8.077c1.548-1.54 2.552-4.288.808-5.882a14.43 14.43 0 0 0-8.128-2.437 46.31 46.31 0 0 0-4.525-.218l-.185 3.028-.677 11.045c1.822-.357 3.616-.85 5.365-1.472a19.23 19.23 0 0 0 7.342-4.062zM255.457 78.135c-16.98 2.177-18.855 15.442-18.967 16.38a90.32 90.32 0 0 1 11.182-.208 63.45 63.45 0 0 1 21.54 4.472 28.59 28.59 0 0 1 7.25 4.043 1 1 0 0 1 .177 1.452 35.57 35.57 0 0 1 2.348 1.5c3.373-14.367-6.325-29.845-23.53-27.64zm-38.395 160.38a1.75 1.75 0 0 1 .25.015l-.25-.035zm-107.63 44.41l-.03-.178c2.908-.566 5.6-1.933 7.772-3.947 3.04-3.203 1.773-8.113-.82-11.22-.058-.072-.112-.145-.172-.215a11.08 11.08 0 0 0-1.642-1.52 18.85 18.85 0 0 0-9.642-3.25 34.52 34.52 0 0 0-2.592-.133l.16-.098a22.84 22.84 0 0 0 7.578-6.95 7.07 7.07 0 0 0-.555-8.84 9.87 9.87 0 0 0-6.693-1.907 1.5 1.5 0 0 0 0-.407l-1.17-6.76-.168-.975c-.181-.648-.851-1.028-1.5-.852a1.25 1.25 0 0 0-.852 1.5l1.162 6.75.145.852-.572.05c-1.06.1-2.12.25-3.18.41l-1.15-6.69-.168-.975c-.181-.648-.851-1.028-1.5-.853a1.25 1.25 0 0 0-.85 1.5l1.16 6.75.028.163-6.178 1.062-.975.167a1.22 1.22 0 0 0-.852 1.5 1.25 1.25 0 0 0 1.5.852l3.477-.6 2 11.655 3.042 17.692.25 1.518.188 1.082.403 2.345-2.75.47-.975.167c-.648.181-1.027.851-.85 1.5a1.25 1.25 0 0 0 1.5.852l6.75-1.163.162-.027 1.063 6.18.17.975c.181.648.851 1.028 1.5.853a1.25 1.25 0 0 0 .852-1.5l-1.16-6.75-.017-.09a64.68 64.68 0 0 0 2.815-.437l.913-.175 1.045 6.077.167.978c.181.648.851 1.027 1.5.85a1.25 1.25 0 0 0 .853-1.5zm-13.25-19.92h-.023l-1.975-11.5-.55-3.195c1.512-.363 3.042-.651 4.582-.863a16.29 16.29 0 0 1 8.818.403c2.332 1.12 2.15 4.163.982 6.165a19.5 19.5 0 0 1-6.56 6.082c-1.678 1.1-3.437 2.07-5.262 2.903zm10.075 17.94a49.51 49.51 0 0 1-6.862.88q-.275-1.575-.543-3.152l-.447-2.602-.905-5.338-.955-5.55a1.2 1.2 0 0 0 .59.05c.102-.017.207-.03.313-.045l.425-.055.8-.082a35.93 35.93 0 0 1 4.227-.132 18.75 18.75 0 0 1 9.398 2.35c.288.183.578.365.847.575a8.84 8.84 0 0 1 3.065 4.57c.593 1.41.431 3.025-.43 4.29-2.058 2.682-6.35 3.612-9.51 4.242zm127.42-48.695c-1.072-2.485-4.572-4.03-6.89-5.095a43.99 43.99 0 0 0-4.402-1.735l-1.115 2.75-1.935 4.75q-.91 2.25-1.825 4.488l-.437 1.08c.05 0 .32.043.44.055a31.76 31.76 0 0 0 1.188.112q1.75.143 3.523.138h.28a20.22 20.22 0 0 0 8.047-1.338c1.923-.847 4.083-2.99 3.128-5.205zm-17.465 8.355q-3 7.39-6.013 14.785a46.61 46.61 0 0 0 5.975 2.732c2.873 1.078 6.808 2.5 9.858 1.322s3.2-5.98 2.155-8.627a16.93 16.93 0 0 0-6.75-7.32 34.58 34.58 0 0 0-3.467-2q-.56-.278-1.128-.538c-.108-.05-.218-.095-.325-.143s.05.018.132.055a1.62 1.62 0 0 1-.437-.268zm38.881 6.862q-.455.373-.923.725l-.335.25a25.33 25.33 0 0 1-2.322 1.515l-1.442.765c-1.985.942-5.173 1.933-6.52-.532a4.42 4.42 0 0 1-.467-2.71 8.03 8.03 0 0 1 .7-2.335 17.17 17.17 0 0 1 1.797-2.96l.828-1.078c-2.66.828-10.667 3.08-9.86-2.27.643-2.365 2.151-4.402 4.225-5.708l-.162.02a12.22 12.22 0 0 1-4.305-.175 7.31 7.31 0 0 1-4.983 6.8 17.91 17.91 0 0 1-2.75.895 26.11 26.11 0 0 1-6 .65l.315.218c.475.32.945.648 1.4 1a16.16 16.16 0 0 1 6.787 9.5c.67 3.82-.643 8.702-4.75 9.902a14.87 14.87 0 0 1-8.5-.64l-.035.085-2.465 6.06a1.25 1.25 0 0 1-1.5.852c-.648-.181-1.028-.851-.852-1.5l.357-.875 2.208-5.43-.63-.25a59.63 59.63 0 0 1-2.602-1.1l-2.465 6.063a1.25 1.25 0 0 1-1.5.85 1.22 1.22 0 0 1-.85-1.5l.355-.877 2.25-5.523-.095-.04-6.062-2.465a1.25 1.25 0 0 1-.852-1.5 1.22 1.22 0 0 1 1.5-.852l.875.355 2.435 1 1.202-2.955L214.25 239l.925-2.27 2.188-5.38 3-7.38-3.045-1.238a1.25 1.25 0 0 1-.852-1.5c.181-.648.851-1.028 1.5-.853l.875.355.237.097 5.285 2.15.03-.072 2.465-6.06c.077-.192.189-.367.33-.517.298-.319.748-.447 1.17-.335a1.22 1.22 0 0 1 .85 1.5l-.355.875-2.428 5.972a43.9 43.9 0 0 1 3.175 1.483l.278-.685 2.465-6.062a1.25 1.25 0 0 1 1.5-.852c.648.181 1.028.851.852 1.5l-.355.875-2.467 6.063a1.75 1.75 0 0 1-.182.338 16.89 16.89 0 0 1 1.795 1.267 11.23 11.23 0 0 1 .793.708c.037-.08.083-.157.125-.235.758-1.151 1.772-2.11 2.963-2.803a38.92 38.92 0 0 1 9.445-4.047l-.453-.325a17.44 17.44 0 0 1-3.792-3.817 5.04 5.04 0 0 1-1.273-3.898 2.07 2.07 0 0 1 .365-.722c-4.003-2.907-8.543-4.991-13.358-6.13-7.764-1.883-15.943-.986-23.115 2.535a36.09 36.09 0 0 0-3.79 2.18l-2-1.028q-.837-1.453-1.81-2.82c-.17-.237-.347-.47-.525-.705-4.161-5.522-9.851-9.701-16.365-12.02a35.28 35.28 0 0 0-1.925-.615l-.48-.135a32.5 32.5 0 0 0-17.055-.05c-7.279 1.957-13.671 6.341-18.12 12.425-7.079 9.998-8.463 22.953-3.655 34.22-1.758.926-3.444 1.984-5.042 3.165a36.77 36.77 0 0 0-8.713-10.187c-8.547-6.792-19.539-9.713-30.33-8.059s-20.404 7.732-26.525 16.772a37.16 37.16 0 0 0-.57 39.615l3.685 1.198a36.4 36.4 0 0 1-4.983-9.833 34.96 34.96 0 0 1 15.122-40.547 37.25 37.25 0 0 1 18.773-5.235A36.13 36.13 0 0 1 132.5 245.66c-2.168 1.818-4.125 3.874-5.835 6.127-2.216 2.945-3.977 6.207-5.225 9.675a37.95 37.95 0 0 0-1.085 3.575 40.83 40.83 0 0 0 2.555 26.812 34.47 34.47 0 0 1-2.53 1.818 34.7 34.7 0 0 1-6.295 3.225l1.8.57 1.73.548c2.265-1.087 4.409-2.408 6.4-3.94 1.469 2.757 3.262 5.328 5.34 7.66L139.66 305l7.67 2.43c1.3-.833 2.75-1.5 4.105-2.25l9.192-5.062 28.058-15.452 7.46-4.108a37.29 37.29 0 0 0-.53-13.09c-.154-.695-.327-1.386-.517-2.072a33.44 33.44 0 0 0 12.422 8.822l.08.03 13.38-7.368 26.863-14.795 3.803-2.093 2.177-1.2.832-.458.413-.227.75-.412c.063-.33.118-.66.17-1q-.443.398-.895.773zM169.015 273.5a25.25 25.25 0 0 1-10 1.7c.75.487 1.5 1 2.205 1.527a17.62 17.62 0 0 1 7.392 10.29c.75 4.127-.66 9.45-5.102 10.75-3.126.682-6.383.427-9.365-.733l-.083.205-2.7 6.64a1.25 1.25 0 0 1-1.5.852c-.648-.181-1.028-.851-.853-1.5l.39-.96 2.457-6.045-.862-.333a66.79 66.79 0 0 1-2.892-1.225l-.05.125-2.703 6.642a1.25 1.25 0 0 1-1.5.85 1.22 1.22 0 0 1-.85-1.5l.39-.957 2.5-6.145-.197-.083-6.64-2.7a1.25 1.25 0 0 1-.852-1.5 1.22 1.22 0 0 1 1.5-.85l.96.39 2.75 1.123 1.38-3.39q3.847-9.47 7.7-18.935 1.96-4.83 3.928-9.657l.458-1.125.29-.715-3.458-1.405a1.25 1.25 0 0 1-.858-1.455v-.045c.181-.648.851-1.028 1.5-.853l.96.39 6.145 2.5.08-.197 2.7-6.642a1.25 1.25 0 0 1 1.5-.85c.167.04.321.122.447.237a1.17 1.17 0 0 1 .405 1.262l-.39.957-.75 1.82-1.96 4.815q1.57.66 3.082 1.423l.538.265.07.038.1-.25.25-.635 2.703-6.643a1.25 1.25 0 0 1 1.5-.853 1.22 1.22 0 0 1 .852 1.5l-.39.96-2.338 5.75-.362.892a1.86 1.86 0 0 1-.192.35l-.06.085c.53.325 1.06.677 1.567 1.06a6.9 6.9 0 0 1-1.813 12.772zm8.317-31.062a40.67 40.67 0 0 0-13.312-5.093c-.375-.072-.75-.127-1.133-.187l.678-2.41q1.083-3.86 2.17-7.715a1.25 1.25 0 0 0 .235.093 26.64 26.64 0 0 1 5.82 2.405 19.47 19.47 0 0 1 2.235 1.47 13.2 13.2 0 0 1 3.398 3.693 7.64 7.64 0 0 1 1.08 4.45 5.27 5.27 0 0 1-1.17 3.298zM166.38 224.73q1.35-4.792 2.695-9.587l.765-2.72c1.358.295 2.7.667 4.018 1.09a31.7 31.7 0 0 1 3.455 1.273 9.65 9.65 0 0 1 2.372 1.477 5.12 5.12 0 0 1 1 1.138 3.5 3.5 0 0 1-1.25 4.288c-.269.244-.562.462-.872.65a11.64 11.64 0 0 1-1.678.832 21.84 21.84 0 0 1-5.55 1.29 34.47 34.47 0 0 1-4.955.272zm34.705 7.845q-.195 1.21-.5 2.407c-.638 2.576-1.624 5.054-2.93 7.365a30.32 30.32 0 0 1-3.035 4.403 32.1 32.1 0 0 1-6.11 5.57q-.652-.847-1.352-1.653c-2.28-2.631-4.891-4.956-7.768-6.917a9.14 9.14 0 0 0 1.073-8.25c-.865-2.313-2.365-4.336-4.327-5.835a21.76 21.76 0 0 0-2.135-1.535l-.795-.5c-.433-.25-.875-.5-1.322-.723a24.38 24.38 0 0 0 4.892-1.095 16.71 16.71 0 0 0 2.515-1.107c.115-.065.25-.115.353-.18a6.7 6.7 0 0 0 3.672-7.143 6.85 6.85 0 0 0-3.5-3.972 15.24 15.24 0 0 0-1.25-.657c.027-.045.05-.092.07-.14l1.45-5.15.185-.665.235-.83a1.25 1.25 0 0 0-.293-1.157 1.07 1.07 0 0 0-.56-.343 1.25 1.25 0 0 0-1.5.852l-.5 1.733-1.148 4.08-.187.675a37.47 37.47 0 0 0-2.865-.972l1.55-5.515.248-.82a1.22 1.22 0 1 0-2.35-.647l-1.635 5.813-.015.085-5.078-1.427-.833-.233a1.22 1.22 0 1 0-.647 2.35l2.94.828-7.153 25.442-.04.143-.157-.018a37.05 37.05 0 0 0-18.633 3.08c-6.545-15.301-.34-33.068 14.308-40.967a30.68 30.68 0 0 1 20.482-2.605c.583.132 1.158.297 1.733.465.147.042.297.075.442.12.663.202 1.315.433 1.96.68a32.75 32.75 0 0 1 11.805 7.793 32.53 32.53 0 0 1 7.28 11.785 31.33 31.33 0 0 1 1.425 15.392zm-32.352 29.69a26.41 26.41 0 0 0-2.903-1.715l-1.792-.875a47.53 47.53 0 0 0-4.872-1.91l-.033.075-.457 1.123-.795 1.957-4.657 11.457a1.46 1.46 0 0 1 .418 0c-.54-.077 0 0 .22.023a46.42 46.42 0 0 0 5.632.282 21.55 21.55 0 0 0 8.905-1.558c2.095-1 4.342-3.39 3.32-5.75a8.1 8.1 0 0 0-2.985-3.11zm-14.278 13.158l-1.25-.598-.365-.16c-.107-.048.032 0 .125.05a1.45 1.45 0 0 1-.537-.385l-2.25 5.525-4.445 10.935a51.68 51.68 0 0 0 6.73 3.08c3.16 1.178 7.5 2.735 10.835 1.405a5.06 5.06 0 0 0 2.75-3.8c.505-1.903.387-3.919-.338-5.75a18.5 18.5 0 0 0-7.407-8.085 36.52 36.52 0 0 0-3.847-2.217z" fill="#ffd35c"/><path d="M256.205 250.265l-1.155.635-.09.05h-.02l-1.225.675-5.437 3-22.218 12.235-15.368 8.462-11.665 6.425-3.452 1.902L173.18 296l-18.882 10.4-5 2.75-1 .55-.028 3.385-.175 5.068-.407 18.345-.468 21.113-.352 15.78-.028 1.29v.373l-.02.91-.143 6.35a1.22 1.22 0 0 1-2.437 0v-.123c-.077-2.368.053-4.765.14-7.142l.043-1.277.015-.448.018-.842.39-17.5.468-21.115.387-17.44.09-4.04.065-2.835-3.54-1.155-9.065-2.877-.775-.25-18.317-5.802-1.962-.623-2.095-.663-5.533-1.75-22.467-7.12-3.035-.96-1.75-.553-2.525-.8-2.202-.697-2.06-.652-3.515-1.115.343 1.882 1.61 8.115.04.195.5 2.565.632 3.195 6.192 2.14q15.69 5.42 31.393 10.793c8.32 2.843 16.617 5.848 25.038 8.38a1.22 1.22 0 0 1-.648 2.353c-3.73-1.123-7.417-2.408-11.107-3.65q-16.535-5.568-33.018-11.28-8.655-2.977-17.3-5.972l3.138 15.825 5.63 28.387.125.627.28 1.405.277 1.4 2.675 13.5 1.3 6.555q.892 4.485 1.78 8.973l.058.288 6.5 2.527 6.75 2.623 24.772 9.633 19.25 7.485c1.125-1 2.55-1.793 3.75-2.652l8.453-6.038 1.365-.975 12-8.58 1.187-.845 1.193-.855 9.75-6.96 29.662-21.187 24.398-17.428 9.707-6.935a23.95 23.95 0 0 1 .53-3.08l1.135-6.878.855-5.183.067-.402.065-.395 2.467-14.955q2-12.058 3.98-24.113l1-6.027-6.72 3.655-1.87 1.045-.44.25-.44.25q-7.825 4.358-15.637 8.735-10.978 6.155-21.92 12.37l-19.41 11.2a117.22 117.22 0 0 0-10.873 6.765c-1.25.943-2.47-1.175-1.23-2.105a21.82 21.82 0 0 1 .673-.483c3.95-2.735 8.177-5.102 12.317-7.527l20.065-11.532q10.882-6.178 21.805-12.285 7.282-4.075 14.578-8.132l.44-.25.44-.25 2.05-1.145 6.693-3.712.628-3.8.36-2.185.373-2.25.115-.685.065-.402.067-.403.182-1.105.535-3.25.4-2.425.012-.077-.095.052z" fill="#ff9f48"/><path d="M243.655 214.44s-.012 0-.015.04c.025-.023.037-.04.015-.04zm14.572 12.017c-1.138-3.681-3.39-6.918-6.445-9.265-2.07-1.787-4.706-2.782-7.44-2.81a3.32 3.32 0 0 0-.695.188v.08c0-.053 0-.015.03.055l.135.403a5 5 0 0 0 .323.602 10.03 10.03 0 0 0 .97 1.368c1.121 1.466 2.553 2.666 4.193 3.512.442.184.919.27 1.397.25.3-.03.598.069.821.272s.349.491.346.793a1.11 1.11 0 0 1-.75 1.295c-.031.014-.062.026-.095.035-1.613.424-3.21.907-4.788 1.447a38.54 38.54 0 0 0-7.15 3.068 8.02 8.02 0 0 0-2.335 1.822c-.065.092-.123.188-.175.287-.05.092-.09.189-.12.29-.01.054-.01.109 0 .163.011.025.028.046.05.063a2.14 2.14 0 0 0 .892.31c.318.052.638.082.96.09h.29c1.106.007 2.211-.072 3.305-.235 1.448-.199 2.885-.478 4.303-.835 1.308-.33 2.205 1.6.938 2.228-1.065.536-2.097 1.135-3.09 1.795-.485.32-.965.65-1.43 1-1.543 1.145-3.585 2.762-3.732 4.825 0-.023.085.135 0 .045.135.138-.127-.102.113.125-.19-.178.235.045 0 0 .132.033.25.08.398.11.72.083 1.448.063 2.162-.06a37.5 37.5 0 0 0 8.78-2.69c.037-.013.074-.024.113-.033a1.07 1.07 0 0 1 1.263.65 1.2 1.2 0 0 1-.187 1.422c-1.432 1.299-2.734 2.735-3.885 4.288a15.93 15.93 0 0 0-1.52 2.43 7.68 7.68 0 0 0-.5 1.27c-.107.348-.163.709-.167 1.073a1.86 1.86 0 0 0 .022.313 1.64 1.64 0 0 0 .2.565c.042.061.096.112.157.153a1.81 1.81 0 0 1 .208.088 5.21 5.21 0 0 0 .522 0 5.52 5.52 0 0 0 1.175-.268c.093-.032.182-.072.275-.108 1.008-.396 1.971-.899 2.873-1.5.072-.045.14-.097.212-.145a28.31 28.31 0 0 0 2.82-2.077c.435-.363.85-.75 1.25-1.133s.773-.75 1.14-1.152l.127-.135c.183-.197.377-.388.553-.59.494-.566.914-1.193 1.25-1.865a10.69 10.69 0 0 0 1-3.91c.053-.54.078-1.08.093-1.623 0-.41.015-.817 0-1.225l-.053-1.215a25.3 25.3 0 0 0-1.1-5.897zm21.63-112.635c-.702-2.321-3.018-3.759-5.41-3.36a6 6 0 0 1-2.115.707c-6.345 1.07-8-4.847-8.403-8.68a23.49 23.49 0 0 1-.09-1.118l-.855.845a21 21 0 0 1-10.25 5.36c-8.128 1.625-7.977-2.75-7.977-2.75a34.88 34.88 0 0 1-7.88.5 16.67 16.67 0 0 0-1.44 2.978 22.34 22.34 0 0 0-1.43 7.415c.053 2.582.63 5.125 1.695 7.478a18.3 18.3 0 0 0 3.417 5.287c1.615 1.755 3.541 3.196 5.68 4.25a29.11 29.11 0 0 0-.04 1.17v.75c.025 3.065.5 8.28 3.317 9.613a9.04 9.04 0 0 0 5.61.06c.181-.105.388-.157.597-.15a19.63 19.63 0 0 0 10.872-7.513c.593-.944.926-2.027.968-3.14v-.157c0-.052.015-.13.015-.197v-3.157a19.27 19.27 0 0 0 5.798-8.91 5.77 5.77 0 0 0 6.435-.815c1.739-1.666 2.323-4.207 1.485-6.465zm-40.185 1.09c-.15-.048-.286-.134-.392-.25a1.25 1.25 0 0 1-.358-.862v-1.75a1.25 1.25 0 0 1 .357-.86 1.22 1.22 0 0 1 .863-.358c.32.014.625.14.86.358a1.25 1.25 0 0 1 .357.86v1.75a1.25 1.25 0 0 1-.357.863 1.23 1.23 0 0 1-.86.357.94.94 0 0 1-.47-.107zm12.608 19.845a1.25 1.25 0 0 1-1.165.863c-.994-.031-1.981-.179-2.94-.443-.489-.117-.973-.256-1.45-.415-.246-.08-.464-.23-.625-.433a1.25 1.25 0 0 1-.215-.442c-.051-.204-.051-.418 0-.623v-.017a1.23 1.23 0 0 1 1.5-.835c.964.323 1.954.562 2.96.712a7.39 7.39 0 0 0 .78.058c.23.001.455.068.648.195a1.34 1.34 0 0 1 .25.23 1.31 1.31 0 0 1 .31.793 1 1 0 0 1-.053.35zm7.212-11.82c-2.5 4.83-9.392 7.767-14.25 4.53-2.799-2.137-4.513-5.4-4.685-8.918a1.18 1.18 0 0 1 1.543-1.175 17.7 17.7 0 0 0 4.35.87 42.2 42.2 0 0 0 12.885-.87c.698-.148 1.63.337 1.543 1.175-.181 1.536-.648 3.024-1.378 4.388zm3.815-9.86v1.532c-.006.322-.134.631-.357.862-.23.227-.539.356-.863.358a.95.95 0 0 1-.47-.105.92.92 0 0 1-.393-.25 1.25 1.25 0 0 1-.357-.862v-1.75a1.25 1.25 0 0 1 .357-.862c.23-.227.539-.356.863-.358a.9.9 0 0 1 .47.105.92.92 0 0 1 .393.25 1.25 1.25 0 0 1 .357.862z" fill="#ffceb6"/><path d="M406.16 135.328c3.616-1.351 7.575-1.481 11.273-.37l.278-2.45c-1.839-.553-3.761-.775-5.678-.657-.397.02-.797.055-1.197.09 1.892-1.59 3.401-3.586 4.415-5.84 1.124-2.343.517-5.149-1.475-6.817a7.44 7.44 0 0 0-5.283-.843l-1.61-4.95-.235-.718a1.22 1.22 0 0 0-2.047-.536 1.22 1.22 0 0 0-.305 1.184l1.632 5 .155.473h-.045c-.75.175-1.472.382-2.202.608q-.75-2.275-1.482-4.552l-.235-.72a1.22 1.22 0 0 0-2.047-.536 1.22 1.22 0 0 0-.305 1.184l1.627 5-4.168 1.358-.72.235a1.22 1.22 0 0 0 .647 2.35l2.445-.795 6.02 18.473 2.25-.975-1.697-5.207zm-.767-2.345l-2.627-8.062-.72-2.208.163-.065q1.407-.53 2.85-.955c2.108-.841 4.406-1.088 6.645-.715 1.812.547 1.89 2.788 1.25 4.303a15.02 15.02 0 0 1-4.21 5.155c-1.053.93-2.172 1.782-3.35 2.548zm-75.71 102.388c-1-2.238-3.75-9.935-7.04-9.935-1.955 0-3.612 2.347-4.625 4.223.897.904 1.744 1.857 2.535 2.855 3.547 4.582 5.909 9.969 6.878 15.682.45 2.389.633 4.821.545 7.25a21.17 21.17 0 0 0 6.47 5.595c3.987.91 1.11-9.667.702-11.177a101.56 101.56 0 0 0-5.465-14.492zM156.525 397.208a9.29 9.29 0 0 0-4.485 3.127c-4.025 4.735-6.75 15.845 1.39 18.13 4.105 1.15 8.75-2.645 10.4-8.48 1.32-4.705-.368-14.652-7.305-12.777zm81.792-58.105c-1.13.366-2.125 1.063-2.855 2-2.56 3.015-4.297 10.082.885 11.538 2.613.733 5.575-1.683 6.618-5.395.84-2.995-.233-9.335-4.648-8.142zm-99.275-48.193l6.64 2.7.197.083-2.5 6.145-.39.957a1.22 1.22 0 0 0 .85 1.5 1.25 1.25 0 0 0 1.5-.85l2.703-6.642.05-.125c.958.43 1.922.843 2.892 1.225l.863.332-2.458 6.045-.39.96c-.176.649.205 1.319.852 1.5a1.25 1.25 0 0 0 1.5-.852l2.7-6.64.083-.205c2.982 1.159 6.239 1.414 9.365.733 4.443-1.305 5.84-6.627 5.103-10.75-1.103-4.228-3.738-7.895-7.392-10.29-.71-.537-1.45-1.04-2.205-1.527a25.25 25.25 0 0 0 10-1.7 6.9 6.9 0 0 0 1.812-12.772c-.504-.38-1.027-.734-1.567-1.06l.06-.085a1.86 1.86 0 0 0 .192-.347l.363-.895 2.337-5.75.39-.96a1.22 1.22 0 0 0-.853-1.5 1.25 1.25 0 0 0-1.5.85q-1.355 3.322-2.703 6.642l-.25.635-.1.25-.07-.037c-.175-.093-.36-.175-.537-.265q-1.5-.75-3.083-1.423l1.96-4.815.75-1.82.39-.957c.139-.464-.022-.966-.405-1.262-.127-.115-.281-.197-.447-.238a1.25 1.25 0 0 0-1.5.85l-2.7 6.642-.08.197-6.145-2.5-.965-.388c-.649-.176-1.319.205-1.5.852v.045a1.25 1.25 0 0 0 .858 1.455l3.458 1.405-.29.715-.458 1.125-3.923 9.652-7.7 18.935-1.38 3.39-2.75-1.123-.96-.39a1.22 1.22 0 0 0-1.5.85 1.25 1.25 0 0 0 .832 1.498zm18.838-30l.795-1.957.457-1.123.032-.075c1.658.547 3.285 1.184 4.872 1.91a39.55 39.55 0 0 1 1.793.875 26.41 26.41 0 0 1 2.902 1.715c1.258.748 2.289 1.823 2.985 3.11 1.023 2.36-1.225 4.75-3.32 5.75a21.55 21.55 0 0 1-8.905 1.558 47.96 47.96 0 0 1-5.633-.282c-.225-.025-.75-.098-.22-.022a1.46 1.46 0 0 0-.417 0zm-7.7 18.935l2.25-5.525a1.45 1.45 0 0 0 .537.385c-.093-.04-.232-.097-.125-.05l.367.16q.63.285 1.25.597c1.327.664 2.613 1.408 3.85 2.228a18.5 18.5 0 0 1 7.407 8.087c.725 1.831.843 3.847.338 5.75a5.06 5.06 0 0 1-2.75 3.8c-3.345 1.33-7.675-.227-10.835-1.405a51.68 51.68 0 0 1-6.73-3.08q2.215-5.47 4.44-10.937zm75.038-163.67a17.28 17.28 0 0 0 3.545.75c-.777.992-1.468 2.048-2.065 3.157-1.593 2.94-3.128 7.36-.545 10.765 1.264 1.218 2.892 1.989 4.635 2.195a66.06 66.06 0 0 0 13.977.873c0-.5.025-.9.04-1.17-2.139-1.054-4.065-2.495-5.68-4.25a18.3 18.3 0 0 1-3.417-5.287c-1.065-2.352-1.642-4.896-1.695-7.477a22.34 22.34 0 0 1 1.43-7.415 16.67 16.67 0 0 1 1.44-2.978 34.88 34.88 0 0 0 7.88-.5c0 0-.15 4.365 7.977 2.75a21 21 0 0 0 10.25-5.36c.292-.274.577-.556.855-.845a23.49 23.49 0 0 0 .09 1.117c.41 3.833 2.057 9.75 8.402 8.68a6 6 0 0 0 2.115-.708c2.392-.399 4.708 1.039 5.41 3.36.841 2.256.262 4.796-1.472 6.465a5.77 5.77 0 0 1-6.435.815 19.27 19.27 0 0 1-5.798 8.91v3.157c0 .067 0 .132-.015.197s0 .105 0 .157l8.917 1.605a85.35 85.35 0 0 0 9.8 1.303c3.917 0 1.955-8.25-1.178-12.877.637.67 2.25 1.532 5.865-.5 2.673-1.513-.812-10.582-10.535-17.278-.75-.513-1.53-1.013-2.347-1.5a1 1 0 0 0-.178-1.453 28.59 28.59 0 0 0-7.25-4.042 63.45 63.45 0 0 0-21.54-4.473c-3.728-.162-7.463-.093-11.182.207q-4.038.315-8.053.915c-1.547.23-.89 2.58.648 2.35q3.57-.53 7.19-.828a7.56 7.56 0 0 0-3.615 4c-.602 1.02-.424 2.319.43 3.14-3.309 2.439-6.453 5.093-9.413 7.945-.065.07-.117.135-.175.202-1.825 2.07-.212 3.262 1.69 3.922z"/><path d="M245.233 127.468c4.868 3.238 11.75.3 14.25-4.53a12.38 12.38 0 0 0 1.375-4.388c.087-.837-.845-1.322-1.543-1.175a42.2 42.2 0 0 1-12.885.87 17.59 17.59 0 0 1-4.35-.87 1.18 1.18 0 0 0-1.542 1.175 11.95 11.95 0 0 0 4.695 8.917zm-1.905-7.218a30.78 30.78 0 0 0 3.113.445 42.46 42.46 0 0 0 11.61-.587 11.33 11.33 0 0 1-.332.922c-.748 1.827-2.092 3.346-3.815 4.31a7.73 7.73 0 0 1-6.872.37 7.55 7.55 0 0 1-3.28-4.075 14.27 14.27 0 0 1-.422-1.385zm18.76-4.42c.323-.002.633-.13.863-.358a1.27 1.27 0 0 0 .357-.862v-1.75a1.25 1.25 0 0 0-.357-.862.92.92 0 0 0-.392-.25.9.9 0 0 0-.47-.105c-.323.002-.633.13-.863.358a1.25 1.25 0 0 0-.358.862v1.75a1.25 1.25 0 0 0 .357.862.92.92 0 0 0 .392.25.9.9 0 0 0 .47.105zm-20.728-2.032v-1.75a1.25 1.25 0 0 0-.357-.86 1.35 1.35 0 0 0-.86-.357 1.22 1.22 0 0 0-.863.358 1.25 1.25 0 0 0-.357.86v1.75a1.25 1.25 0 0 0 .357.862.91.91 0 0 0 .393.25.94.94 0 0 0 .47.105 1.23 1.23 0 0 0 .86-.358 1.25 1.25 0 0 0 .357-.86zm9.755 19.385a7.39 7.39 0 0 1-.78-.058c-1.006-.151-1.996-.389-2.96-.712a1.23 1.23 0 0 0-1.5.835v.017c-.051.204-.051.418 0 .623a1.25 1.25 0 0 0 .215.443 1.31 1.31 0 0 0 .625.432 19.31 19.31 0 0 0 1.45.415 12.55 12.55 0 0 0 2.94.442 1.25 1.25 0 0 0 1.165-.862 1 1 0 0 0 .053-.357 1.31 1.31 0 0 0-.31-.792 1.34 1.34 0 0 0-.25-.23 1.18 1.18 0 0 0-.647-.195zm-.148 38.34c-.07 1.567 2.37 1.565 2.438 0 .317-7.228.862-14.447 1.367-21.662a9.85 9.85 0 0 0 16.977 2.775 39.29 39.29 0 0 0 6.57-8.695 56.15 56.15 0 0 0 2.98-5.69 1.25 1.25 0 0 0 .055-.895 1.25 1.25 0 0 0-1.875-.75 1.21 1.21 0 0 0-.288.405c-1.878 4.376-4.389 8.452-7.452 12.098a12.02 12.02 0 0 1-7.155 4.787c-2.795.123-5.42-1.342-6.782-3.785a16.36 16.36 0 0 1-2.287-5.06 1.25 1.25 0 0 0-1.227-.872 1.12 1.12 0 0 0-.598.15c-.176.098-.317.248-.403.43a11.04 11.04 0 0 1-7.155 6.567c-5.113.877-8-4.397-9.05-8.54-.341-1.233-.555-2.498-.637-3.775-.018-.54-.396-1-.923-1.123-.293-.101-.614-.08-.892.058a1.15 1.15 0 0 0-.583.677c-.034.126-.048.257-.042.388a20.04 20.04 0 0 0 3.817 11.062c1.765 2.328 4.506 3.712 7.428 3.75 2.715-.147 5.257-1.381 7.05-3.425q-.54 7.773-1.025 15.55l-.307 5.575zm-1.997-13.808a1.22 1.22 0 0 0-1.725 0 1.33 1.33 0 0 0-.358.862l-.1 2.25a1.22 1.22 0 0 0 1.218 1.22 1.23 1.23 0 0 0 .862-.358c.222-.233.349-.541.358-.862l.102-2.25a1.25 1.25 0 0 0-.357-.863zm-.862 9.398c-.323.001-.633.129-.862.357a1.32 1.32 0 0 0-.358.86l-.1 2.25a1.22 1.22 0 0 0 2.08.863 1.3 1.3 0 0 0 .358-.863l.102-2.25a1.22 1.22 0 0 0-1.22-1.217zm59.992-6.06a42.28 42.28 0 0 0-2.935-5.868l-.165-.267a1.25 1.25 0 0 0-2.035-.088c-.331.369-.36.918-.07 1.32a51.4 51.4 0 0 1 5.862 14.152c3.134 11.275 2.796 23.233-.97 34.313a43.75 43.75 0 0 1-15.935 20.548q-2.275 1.672-4.685 3.147l-.312.19c-.31.19-.627.368-.94.553l-1.415.828a80.24 80.24 0 0 1-3.235 1.702c-3.246 1.619-6.585 3.044-10 4.267-3.25 1.173-6.56 2.04-9.883 2.915.053-.25.11-.5.15-.75a25.57 25.57 0 0 0 .29-3.558v-1.222c0-.41-.03-.81-.06-1.213a27.8 27.8 0 0 0-.972-5.5c-.69-2.442-1.794-4.747-3.265-6.815q-1.065-2.87-2.127-5.75a55.94 55.94 0 0 0 12.667-5.695 42.35 42.35 0 0 0 19.208-22.25 41.61 41.61 0 0 0 .78-21.865c-.32-1.535-2.672-.885-2.35.65a39.69 39.69 0 0 1-.263 18.88c-1.41 4.925-3.91 9.469-7.315 13.295-3.011 3.365-6.5 6.27-10.355 8.62a60.37 60.37 0 0 1-9.405 4.722 41.69 41.69 0 0 1-4.893 1.652 1.23 1.23 0 0 0-.85 1.5l.683 1.843a14.03 14.03 0 0 0-8.963-3.37c-1.018.006-1.99.431-2.685 1.175a2.08 2.08 0 0 0-.365.722 5.03 5.03 0 0 0 1.273 3.897 17.44 17.44 0 0 0 3.792 3.83l.453.325a38.92 38.92 0 0 0-9.445 4.047 8.88 8.88 0 0 0-2.96 2.813c-.045.078-.09.155-.127.235a10.49 10.49 0 0 0-.792-.708 16.89 16.89 0 0 0-1.795-1.267 1.75 1.75 0 0 0 .182-.338l2.468-6.062.355-.875c.176-.649-.205-1.319-.852-1.5a1.25 1.25 0 0 0-1.5.852l-2.465 6.063-.278.685c-1.038-.536-2.097-1.03-3.175-1.482l2.427-5.973.355-.875a1.22 1.22 0 0 0-.85-1.5c-.422-.112-.872.016-1.17.335-.141.15-.253.326-.33.518l-2.465 6.06-.03.072-5.285-2.15-.238-.098-.875-.355c-.649-.176-1.319.205-1.5.852a1.25 1.25 0 0 0 .852 1.5l3.045 1.238-3 7.38-2.187 5.38-.925 2.27-5.16 12.69-1.202 2.955-2.435-1-.875-.355c-.649-.177-1.32.204-1.5.853a1.25 1.25 0 0 0 .852 1.5l6.063 2.465.07.03q-1.123 2.765-2.25 5.522l-.355.878a1.22 1.22 0 0 0 .85 1.5 1.25 1.25 0 0 0 1.5-.85l2.465-6.062c.86.385 1.73.75 2.602 1.1l.63.25q-1.108 2.715-2.208 5.43l-.357.875c-.176.649.205 1.319.852 1.5a1.25 1.25 0 0 0 1.5-.852l2.465-6.06.035-.085a14.87 14.87 0 0 0 8.5.64c4.105-1.2 5.418-6.083 4.75-9.902a16.16 16.16 0 0 0-6.787-9.5 38.15 38.15 0 0 0-1.4-1l-.315-.217a26.11 26.11 0 0 0 6-.65 17.91 17.91 0 0 0 2.75-.895 7.31 7.31 0 0 0 4.982-6.8 12.22 12.22 0 0 0 4.305.175l.162-.02c-2.074 1.305-3.582 3.343-4.225 5.708-.807 5.35 7.2 3.097 9.86 2.27-.282.355-.562.713-.828 1.078a17.17 17.17 0 0 0-1.797 2.96 8.03 8.03 0 0 0-.7 2.335 4.42 4.42 0 0 0 .467 2.71c1.348 2.465 4.535 1.475 6.52.532.5-.23.97-.5 1.442-.765a25.19 25.19 0 0 0 2.322-1.515l.335-.25q.47-.353.922-.725.452-.373.895-.75l.365-.335c.47-.43.93-.865 1.373-1.312a14.83 14.83 0 0 0 2.643-3.5 78.62 78.62 0 0 0 9.715-2.72c5.341-1.779 10.51-4.038 15.442-6.75q.615-.343 1.223-.695.608-.353 1.25-.75c1.063-.645 2.113-1.307 3.14-2a48.62 48.62 0 0 0 17.673-20 58.58 58.58 0 0 0 3.192-35.3c-.883-4.215-2.179-8.332-3.87-12.292zM217.07 238.5l.25.035a1.75 1.75 0 0 0-.25-.015zm11.118 12.323c1.045 2.648.918 7.43-2.155 8.627s-6.985-.25-9.857-1.322a46.61 46.61 0 0 1-5.975-2.732q3-7.392 6.012-14.785c.128.11.272.2.428.265-.082-.038-.205-.088-.132-.055l.325.143a46.09 46.09 0 0 1 1.127.538c1.194.599 2.352 1.267 3.468 2a16.93 16.93 0 0 1 6.76 7.317zm2.363-13.35a20.22 20.22 0 0 1-8.05 1.332h-.28q-1.75 0-3.523-.138a31.76 31.76 0 0 1-1.187-.112c-.12 0-.39-.05-.44-.055l.43-1.085 1.825-4.488 1.935-4.75q.56-1.373 1.115-2.75c1.205.398 2.392.858 3.558 1.363l.845.373c2.318 1.065 5.817 2.61 6.89 5.095.965 2.207-1.195 4.35-3.117 5.21zm13.105-23.028c.023 0 0 .018-.015.04.002-.04.01-.045.015-.045zm15.735 20.375c-.012.542-.043 1.083-.092 1.622a10.69 10.69 0 0 1-1 3.91c-.336.672-.756 1.299-1.25 1.865-.175.203-.37.393-.553.59l-.127.135q-.55.592-1.14 1.153a32.91 32.91 0 0 1-1.25 1.132 28.31 28.31 0 0 1-2.82 2.078c-.072.048-.14.1-.212.145-.901.601-1.864 1.104-2.873 1.5-.093.035-.182.075-.275.108a5.52 5.52 0 0 1-1.175.267 5.21 5.21 0 0 1-.523 0 1.81 1.81 0 0 0-.208-.087.56.56 0 0 1-.158-.153 1.64 1.64 0 0 1-.2-.565 1.86 1.86 0 0 1-.023-.312 3.85 3.85 0 0 1 .167-1.072 7.68 7.68 0 0 1 .5-1.27 15.93 15.93 0 0 1 1.52-2.43c1.151-1.553 2.453-2.989 3.885-4.287a1.2 1.2 0 0 0 .188-1.423 1.07 1.07 0 0 0-1.262-.65c-.038.009-.076.02-.113.032a37.5 37.5 0 0 1-8.78 2.69c-.714.123-1.442.143-2.162.06-.135-.03-.265-.078-.397-.11.227.055-.197-.167 0 0-.25-.227.023 0-.113-.125.088.09 0-.068 0-.045.148-2.062 2.19-3.68 3.732-4.825.465-.345.945-.675 1.43-1 .993-.66 2.025-1.259 3.09-1.795 1.268-.628.368-2.558-.937-2.228-1.418.357-2.854.636-4.303.835-1.094.163-2.199.242-3.305.235h-.29c-.322-.008-.642-.038-.96-.09a2.14 2.14 0 0 1-.893-.31c-.022-.016-.039-.038-.05-.063a.44.44 0 0 1 0-.162 1.5 1.5 0 0 1 .12-.29 2.39 2.39 0 0 1 .175-.287 8.07 8.07 0 0 1 2.335-1.822 38.54 38.54 0 0 1 7.16-3.08 69.55 69.55 0 0 1 4.787-1.448c.033-.009.064-.021.095-.035a1.11 1.11 0 0 0 .75-1.295c.002-.301-.124-.59-.346-.793a1.06 1.06 0 0 0-.821-.272c-.478.02-.955-.066-1.398-.25-1.64-.847-3.072-2.046-4.192-3.513a10.03 10.03 0 0 1-.97-1.367 5 5 0 0 1-.323-.603c-.022-.052-.095-.28-.135-.402-.025-.07-.04-.108-.03-.055v-.08a3.32 3.32 0 0 1 .695-.187c2.734.028 5.37 1.023 7.44 2.81a18.62 18.62 0 0 1 6.445 9.265 25.3 25.3 0 0 1 1.115 5.918q.042.607.053 1.215l-.025 1.213zm-38.795-34.71a218.58 218.58 0 0 1 6.325-43.203l.777-3a1.22 1.22 0 0 0-2.352-.648 211.72 211.72 0 0 0-5.908 31.25 199.72 199.72 0 0 0-1.282 15.605c-.063 1.565 2.375 1.56 2.44-.005z"/><path d="M296.813 284.92c-7.958.943-16.008-.687-22.972-4.65a32.4 32.4 0 0 1-2.715-1.792 37.09 37.09 0 0 1-9-9.66c-.115-.173-.22-.35-.33-.525l-.323-.5c-.47-.775-.925-1.558-1.342-2.358-.392-.75-.75-1.52-1.095-2.297l-.02-.043-.033-.085-.108-.272a4.7 4.7 0 0 1-.085-.225 1.25 1.25 0 0 0-.385-.553l.06-.37.725-4.393.068-.402.065-.4.65-3.943.4-2.422.028-.167.422-2.55a1.25 1.25 0 0 0-1.792-1.377l-2.72 1.5-.5.272-.75.413-.413.227-.833.458-2.177 1.2-3.802 2.093-26.863 14.795-13.373 7.357-11.455 6.31-7.46 4.108-28.058 15.452-9.192 5.063c-1.345.75-2.805 1.41-4.105 2.25L139.66 305l-10.298-3.263-9.362-2.972-2.377-.75-1.73-.547-1.8-.57-17.782-5.647-11.53-3.653-3.032-.96-5.92-1.877-3.862-1.278-1.885-.622-1.8-.575c-.75-.225-1.5-.437-2.25-.632a1.11 1.11 0 0 0-.44-.12 1.08 1.08 0 0 0-1.295.735 1.25 1.25 0 0 0-.093.787l1.72 8.665.873 4.395.5 2.565 2.82 14.217 5.233 26.38 1.545 7.795.28 1.405.278 1.4 2.672 13.47.1.5 3.07 15.475c.18.913.185 2.387 1.118 2.863.067.037.142.065.212.1-2.322 5.305-2.575 12.438 3.767 14.215 4.105 1.153 8.75-2.642 10.4-8.477l.055-.217 9.42 3.662L132.5 400.9l8.045 3.13c.905.35 2.525 1.375 3.5.862.638-.395 1.25-.832 1.83-1.307l4.548-3.25 9.083-6.488 6.373-4.55 5.658-4.042 1.187-.848 1.193-.853 12.608-9 22.123-15.8 19.903-14.218 13.8-9.858 3.418-2.44c.567-.405 1.127-.75 1.282-1.465.893-4.162 1.395-8.447 2.087-12.645l.475-2.875.065-.4.065-.398 3.433-20.795 4.303-26.062.095-.575.053-.315.095-.585a38.88 38.88 0 0 0 3.197 5.25l.33.45.31.428.027.035a37.81 37.81 0 0 0 17.978 13.32 41.36 41.36 0 0 0 17.25 1.75c.367-.04.701-.232.92-.531s.301-.675.228-1.037a1 1 0 0 0-1.145-.87zm-38.78-35.592l-.4 2.425-.535 3.25-.182 1.105-.067.402-.065.403-.115.685-.373 2.25-.36 2.185-.628 3.8q-3.35 1.853-6.693 3.713l-2.05 1.145-.44.25-.44.25q-7.295 4.06-14.578 8.133-10.92 6.117-21.805 12.285l-20.065 11.533c-4.14 2.425-8.367 4.792-12.317 7.527a21.82 21.82 0 0 0-.672.482c-1.25.93-.025 3.048 1.23 2.105a117.22 117.22 0 0 1 10.873-6.765l19.41-11.2q10.94-6.225 21.92-12.37 7.81-4.38 15.637-8.735l.44-.25.44-.25 1.87-1.045 6.72-3.655-1 6.027q-2 12.055-3.98 24.113l-2.467 14.955-.065.395-.067.402-.855 5.183-1.135 6.877a23.95 23.95 0 0 0-.53 3.08l-9.708 6.935-24.398 17.428-29.657 21.185-9.75 6.96-1.193.855-1.187.845-12 8.58-1.365.975-8.452 6.037c-1.203.86-2.627 1.662-3.75 2.653l-19.25-7.485-24.772-9.632-6.75-2.623-6.5-2.527-.058-.288q-.89-4.5-1.78-8.972l-1.3-6.555-2.675-13.5-.278-1.4-.28-1.405-.125-.627-5.63-28.388-3.138-15.825q8.647 3 17.3 5.972 16.5 5.678 33.018 11.28l11.108 3.65a1.22 1.22 0 0 0 .648-2.353c-8.42-2.532-16.717-5.537-25.038-8.38q-15.705-5.365-31.393-10.793l-6.192-2.14-.633-3.195-.5-2.565-.04-.195-1.61-8.115c-.123-.62-.228-1.25-.343-1.882l3.515 1.115 2.06.653 2.203.697 2.525.8 1.75.553 3.035.96 22.468 7.12 5.532 1.75 2.095.662 1.963.623 18.317 5.803.775.25 9.065 2.87 3.54 1.155-.065 2.835-.09 4.04-.387 17.44-.468 21.115-.39 17.5-.018.842-.015.448c0 .425-.025.85-.043 1.277-.087 2.377-.218 4.775-.14 7.142v.123a1.22 1.22 0 0 0 2.438 0l.143-6.35.02-.91v-.373l.028-1.29.352-15.78.468-21.113.407-18.345.175-5.067a63.63 63.63 0 0 0 .028-3.385c.338-.158.662-.368 1-.55l5-2.75 18.882-10.4 22.395-12.332 3.453-1.902 11.665-6.425 15.368-8.462 22.218-12.235 5.438-3 1.225-.675h.02l.09-.05 1.155-.635 1.75-.963.095-.053z"/><path d="M403.71 330.583a37.37 37.37 0 0 0-3.683-1.572l-6.862-2.655q-6.548-2.483-13.117-4.9l5.17-4.877c2.792-2.623 5.75-5.14 8.42-7.887l.123-.113c1.15-1.072-.577-2.795-1.725-1.725q-3.458 3.227-6.905 6.465-3.825 3.59-7.637 7.195l-4.93-1.817q-10.827-3.977-21.668-7.907l5.48-4.882 6-5.298c.935-.825 1.935-1.613 2.825-2.5a1.71 1.71 0 0 1 .123-.108c1.18-1.038-.55-2.75-1.725-1.725q-3.613 3.178-7.208 6.365-4.05 3.585-8.083 7.19-10.025-3.637-20.055-7.25l-6.613-2.382c-1.052-.377-2.107-.837-3.182-1.142-.045 0-.09-.033-.135-.05-1.477-.53-2.115 1.825-.647 2.352l7.968 2.868q9.665 3.485 19.32 6.982l1.277.468-7.5 6.683q-5.77 5.16-11.52 10.342-9.308-3.375-18.62-6.735l-6.613-2.383c-1.05-.38-2.105-.84-3.183-1.145-.045 0-.09-.033-.132-.048-1.48-.532-2.117 1.823-.65 2.35l7.97 2.867q9.595 3.462 19.19 6.938-4.187 3.78-8.362 7.572-4.6 4.19-9.175 8.41-8.115-2.945-16.235-5.873l-6.613-2.382c-1.05-.377-2.105-.84-3.18-1.145-.048 0-.09-.033-.135-.048-1.48-.532-2.118 1.825-.647 2.35l7.967 2.87q8.42 3.033 16.835 6.085-4.548 4.215-9.053 8.475c-4.33 3.913-8.449 8.054-12.337 12.405-.288.34-.565.69-.838 1.045-.336.582-.141 1.326.438 1.668a1.25 1.25 0 0 0 1.667-.438c-.277.358.093-.113.17-.208l.405-.483.923-1.04c.805-.883 1.635-1.75 2.47-2.597 2.288-2.34 4.635-4.62 7-6.883q5.81-5.567 11.733-11.015 11.907 4.315 23.795 8.67l4.5 1.66q-4.333 4.225-8.623 8.5c-4.065 4.053-8.25 8.08-11.937 12.5q-.435.525-.848 1.063c-.338.582-.142 1.328.438 1.67a1.25 1.25 0 0 0 1.668-.437c-.275.352.082-.1.155-.192l.408-.5a53.34 53.34 0 0 1 .925-1.067c.792-.892 1.603-1.765 2.42-2.635 2.197-2.33 4.442-4.61 6.702-6.88q5.563-5.588 11.23-11.078 7.13 2.627 14.25 5.295l7.665 2.93 2.665 1.063.52.215.225.095h.03l.75.333c.162.075.325.15.485.235 1.385.738 2.618-1.368 1.23-2.105a37 37 0 0 0-3.68-1.572l-6.865-2.657q-7.653-2.903-15.343-5.72 2.8-2.717 5.605-5.433 5.615-5.412 11.25-10.79 6.322 2.332 12.632 4.7l7.663 2.933q1.34.523 2.665 1.063l.522.215.225.093.033.015a24.54 24.54 0 0 1 1.235.567c1.383.738 2.618-1.367 1.23-2.105a36.21 36.21 0 0 0-3.682-1.572l-6.862-2.657q-6.84-2.595-13.71-5.118 3.912-3.728 7.83-7.445 5.217-4.942 10.455-9.86 6.03 2.227 12.05 4.5l7.665 2.933q1.335.52 2.665 1.06l.522.215.225.095.03.012.75.333c.163.075.325.153.483.238 1.403.74 2.638-1.365 1.25-2.105zm-56.46 18.648q-4.425 4.25-8.832 8.54l-2.712-1q-11.972-4.4-23.963-8.75l-1.548-.56q2.925-2.687 5.858-5.37 5.822-5.32 11.685-10.602 10.72 3.888 21.433 7.808l6.11 2.25-8.03 7.685zm21.018-20.03q-5.523 5.23-11.033 10.477l-4.342-1.6q-11.543-4.25-23.103-8.43 4.103-3.695 8.21-7.382 5.4-4.835 10.825-9.64 10 3.635 20 7.293 3.342 1.222 6.678 2.457-3.608 3.413-7.23 6.825z" fill="#4fb3aa"/><path d="M332.703 121.775l4.36-2.04q.805-.367 1.62-.72l.25-.105.198-.082.555-.22c1.452-.555.822-2.912-.647-2.352-5.42 2.063-10.62 4.868-15.817 7.417q-9.668 4.75-19.285 9.59l-4.205 2.118c-1.4.707-.167 2.813 1.233 2.105q5.75-2.903 11.5-5.775l20.24-9.935zm-6.053 22.475a18.43 18.43 0 0 1 .563-.25l.027-.012.198-.078a1.25 1.25 0 0 0 .85-1.5c-.181-.648-.851-1.028-1.5-.852-1.957.75-3.837 1.75-5.717 2.673l-6.83 3.395-1.5.75c-1.4.707-.167 2.813 1.232 2.105l11.17-5.528 1.507-.702zm.665-.3zm22.715 55.328c-3.837 1.96-7.452 4.458-11.09 6.75q-6.728 4.25-13.41 8.588l-3 1.945c-1.31.852-.09 2.965 1.233 2.108l22.41-14.288c1.675-1.032 3.342-2.11 5.095-3 1.39-.712.157-2.817-1.238-2.102z" fill="#1652f0"/><path d="M331.388 57.625c-.565-2.968-4.228-6.057-6.63-1.832a3.84 3.84 0 0 0 3.185 5.44c2.978-.017 3.792-1.79 3.445-3.608z" fill="#1d1d1b"/><path d="M254.97 81.735a12.62 12.62 0 0 0-2.31 2.235c-1.521 1.819-2.593 3.97-3.127 6.28a1.22 1.22 0 0 0 1.485 1.552 1.22 1.22 0 0 0 .865-.905 13.38 13.38 0 0 1 .5-1.75q.068-.182.143-.367c0-.017.113-.25.127-.292l.34-.685a14.2 14.2 0 0 1 .787-1.31l.38-.535.07-.093v-.015l.188-.23a14.3 14.3 0 0 1 1.38-1.453l.447-.388c.153-.138.082-.07.025-.025.52-.38.652-1.1.301-1.64s-1.063-.711-1.621-.39zm14.385 2.997a1.23 1.23 0 0 0-1.668-.437 1.25 1.25 0 0 0-.437 1.667l.167.445c.223.633.399 1.281.527 1.94a12.14 12.14 0 0 1 .233 2.585c-.008 1.106-.17 2.206-.48 3.267a1.22 1.22 0 0 0 2.352.648c.968-3.348.722-6.931-.695-10.115z"/></svg>