<svg xmlns="http://www.w3.org/2000/svg" contentScriptType="text/ecmascript" width="375" zoomAndPan="magnify" contentStyleType="text/css" height="375" preserveAspectRatio="xMidYMid meet" xmlns:v="https://vecta.io/nano"><defs><clipPath id="A"><path d="M132.883 98.902h109.23v109.5h-109.23zm0 0" clip-rule="nonzero"/></clipPath></defs><g clip-path="url(#A)"><path fill="rgb(1.959229%, 3.919983%, 18.818665%)" d="M242.113 179.07c0 .961-.051 1.918-.145 2.875s-.234 1.906-.422 2.848l-.699 2.793-.969 2.707a28.83 28.83 0 0 1-1.23 2.605l-1.48 2.469c-.531.797-1.105 1.566-1.715 2.309s-1.254 1.457-1.934 2.133l-2.133 1.934-2.309 1.715-2.473 1.48c-.844.453-1.711.863-2.602 1.23l-2.707.969c-.922.281-1.852.512-2.793.699l-2.848.426-2.875.141h-50.84a29.45 29.45 0 0 1-2.875-.141l-2.848-.426-2.789-.699c-.922-.277-1.824-.602-2.711-.969l-2.602-1.23-2.469-1.48a28.31 28.31 0 0 1-2.312-1.715l-2.133-1.934c-.68-.676-1.324-1.387-1.934-2.133l-1.715-2.309-1.48-2.469-1.23-2.602-.969-2.711c-.281-.922-.512-1.852-.699-2.793l-.422-2.848-.141-2.875v-50.84l.141-2.875.422-2.848.699-2.789c.277-.922.602-1.824.969-2.711l1.23-2.602 1.48-2.469 1.715-2.312 1.934-2.133 2.133-1.934 2.313-1.715a28.65 28.65 0 0 1 2.469-1.48 28.76 28.76 0 0 1 2.602-1.23l2.711-.969 2.789-.699c.941-.187 1.891-.328 2.848-.422l2.875-.141h50.84l2.875.141 2.848.422 2.793.699c.918.277 1.82.602 2.707.969s1.758.777 2.602 1.23l2.473 1.48 2.309 1.715 2.133 1.934 1.934 2.133a28.31 28.31 0 0 1 1.715 2.313 28.65 28.65 0 0 1 1.48 2.469l1.23 2.602c.367.887.691 1.789.969 2.711s.512 1.848.699 2.789l.422 2.848.145 2.875zm-20.219-32.184l-.484-2.105-.613-2.07-.742-2.031-.859-1.98-.98-1.922-1.102-1.859-1.207-1.789-1.316-1.715-1.422-1.625-1.516-1.539-1.609-1.441-1.695-1.34-1.773-1.234-1.844-1.121-1.91-1.008-1.969-.887-2.02-.766-2.062-.641-2.098-.512-2.125-.387-2.145-.25-2.156-.121c-.723-.016-1.441-.012-2.16.012l-2.156.148-2.141.273-2.121.41-2.094.535-2.055.664-2.008.789-1.961.91-1.898 1.031-1.832 1.145-1.758 1.254-1.68 1.359-1.59 1.461-1.5 1.555-1.398 1.641-1.301 1.727-1.187 1.805-1.078 1.871-.957 1.938-.84 1.988-.715 2.039-.59 2.078-.461 2.109-.328 2.133-.199 2.152-.066 2.16.066 2.156.199 2.152.328 2.133.461 2.109.59 2.078.715 2.039.84 1.992.957 1.934 1.078 1.871 1.188 1.805 1.301 1.727 1.398 1.645 1.5 1.555 1.59 1.457 1.68 1.363L167.82 183l1.832 1.141 1.898 1.031 1.961.91 2.008.789 2.055.664 2.094.539 2.121.406 2.141.277 2.156.145 2.16.012 2.156-.121 2.145-.25 2.125-.383 2.098-.512 2.063-.641 2.02-.766 1.969-.891 1.91-1.008 1.844-1.121 1.773-1.234 1.695-1.34 1.609-1.441 1.516-1.535 1.422-1.629 1.316-1.711 1.207-1.789 1.102-1.859.98-1.926.859-1.98.742-2.027.613-2.074.484-2.102c.031-.187.043-.371.035-.562a2.38 2.38 0 0 0-.086-.551 2.24 2.24 0 0 0-.203-.523 2.36 2.36 0 0 0-.312-.465c-.121-.145-.258-.273-.406-.387a2.31 2.31 0 0 0-.48-.289c-.172-.078-.348-.137-.531-.18a2.44 2.44 0 0 0-.559-.055h-19.398a.83.83 0 0 0-.859.859v4.594c0 .316-.059.617-.18.906s-.293.547-.512.77-.48.391-.77.512-.59.18-.906.18h-18.73c-.316 0-.617-.059-.906-.18s-.547-.293-.766-.512a2.38 2.38 0 0 1-.516-.77c-.121-.289-.18-.59-.18-.906v-18.73a2.33 2.33 0 0 1 .18-.906c.121-.289.293-.547.516-.766s.477-.395.766-.516a2.39 2.39 0 0 1 .906-.18h18.73a2.39 2.39 0 0 1 .906.18 2.38 2.38 0 0 1 .77.516c.219.219.391.477.512.766a2.33 2.33 0 0 1 .18.906v3.773c0 .223.043.438.129.645s.207.387.363.543.34.281.547.367a1.63 1.63 0 0 0 .641.129h18.793c.176-.004.352-.023.52-.062s.34-.098.496-.172.309-.168.445-.277.266-.23.375-.367a2.3 2.3 0 0 0 .285-.441c.078-.16.141-.324.184-.492a2.59 2.59 0 0 0 .066-.52 2.33 2.33 0 0 0-.043-.523zm0 0"/></g></svg>